<svg width="21" height="21" viewBox="0 0 21 21" fill="none" xmlns="http://www.w3.org/2000/svg">
<g clip-path="url(#clip0_30631_4083)">
<path d="M15.75 10.5016C12.8546 10.5016 10.5 12.8562 10.5 15.7516C10.5 18.647 12.8546 21.0016 15.75 21.0016C18.6454 21.0016 21 18.647 21 15.7516C21 12.8562 18.6454 10.5016 15.75 10.5016ZM18.375 18.0642V17.9391C18.375 17.2146 17.787 16.6266 17.0625 16.6266H14.4375C13.713 16.6266 13.125 17.2146 13.125 17.9391V18.0642C12.5808 17.4473 12.25 16.6371 12.25 15.7516C12.25 13.8213 13.8197 12.2516 15.75 12.2516C17.6803 12.2516 19.25 13.8213 19.25 15.7516C19.25 16.6371 18.9193 17.4465 18.375 18.0642ZM17.0625 14.4391C17.0625 15.1636 16.4745 15.7516 15.75 15.7516C15.0255 15.7516 14.4375 15.1636 14.4375 14.4391C14.4375 13.7146 15.0255 13.1266 15.75 13.1266C16.4745 13.1266 17.0625 13.7146 17.0625 14.4391ZM16.625 1.75159H15.75V0.876587C15.75 0.393587 15.358 0.00158691 14.875 0.00158691C14.392 0.00158691 14 0.393587 14 0.876587V1.75159H7V0.876587C7 0.393587 6.608 0.00158691 6.125 0.00158691C5.642 0.00158691 5.25 0.393587 5.25 0.876587V1.75159H4.375C1.96263 1.75159 0 3.71421 0 6.12659V16.6266C0 19.039 1.96263 21.0016 4.375 21.0016H8.75C9.233 21.0016 9.625 20.6096 9.625 20.1266C9.625 19.6436 9.233 19.2516 8.75 19.2516H4.375C2.92775 19.2516 1.75 18.0738 1.75 16.6266V8.75159H19.25C19.25 9.23459 19.642 9.62659 20.125 9.62659C20.608 9.62659 21 9.23459 21 8.75159V6.12659C21 3.71421 19.0374 1.75159 16.625 1.75159ZM1.75 7.00159V6.12659C1.75 4.67934 2.92775 3.50159 4.375 3.50159H16.625C18.0723 3.50159 19.25 4.67934 19.25 6.12659V7.00159H1.75Z" fill="white"/>
</g>
<defs>
<clipPath id="clip0_30631_4083">
<rect width="21" height="21" fill="white"/>
</clipPath>
</defs>
</svg>
