<svg width="32" height="30" viewBox="0 0 32 30" fill="none" xmlns="http://www.w3.org/2000/svg">
<mask id="mask0_2001_29" style="mask-type:luminance" maskUnits="userSpaceOnUse" x="4" y="3" width="24" height="24">
<path d="M28 3H4V27H28V3Z" fill="white"/>
</mask>
<g mask="url(#mask0_2001_29)">
<path d="M25.5691 16.6597L23.6691 9.82374C23.1122 7.82107 21.9019 6.06202 20.2305 4.82621C18.5591 3.59039 16.5226 2.94872 14.4446 3.0032C12.3667 3.05768 10.3666 3.80518 8.76221 5.12689C7.15786 6.44859 6.04135 8.26864 5.59014 10.2977L4.11914 16.9127C3.95666 17.6437 3.96041 18.4018 4.13013 19.1311C4.29986 19.8603 4.63121 20.5422 5.09972 21.1263C5.56824 21.7104 6.16196 22.1818 6.83705 22.5057C7.51214 22.8296 8.25137 22.9978 9.00014 22.9977H10.1141C10.3437 24.128 10.9569 25.1442 11.8499 25.8741C12.7429 26.604 13.8608 27.0028 15.0141 27.0028C16.1675 27.0028 17.2854 26.604 18.1784 25.8741C19.0714 25.1442 19.6846 24.128 19.9141 22.9977H20.7521C21.523 22.9978 22.2833 22.8196 22.9739 22.4772C23.6645 22.1347 24.2665 21.6372 24.733 21.0236C25.1994 20.41 25.5177 19.6968 25.6629 18.9398C25.8082 18.1828 25.7754 17.4024 25.5691 16.6597ZM15.0141 24.9977C14.3959 24.9952 13.7935 24.8017 13.2894 24.4436C12.7854 24.0856 12.4042 23.5806 12.1981 22.9977H17.8301C17.6241 23.5806 17.2429 24.0856 16.7388 24.4436C16.2348 24.8017 15.6324 24.9952 15.0141 24.9977ZM23.1401 19.8127C22.8615 20.1824 22.5005 20.482 22.0857 20.6877C21.671 20.8934 21.2141 20.9996 20.7511 20.9977H9.00014C8.55093 20.9977 8.10746 20.8967 7.70248 20.7023C7.2975 20.5079 6.94135 20.2251 6.6603 19.8746C6.37926 19.5242 6.1805 19.1151 6.0787 18.6776C5.9769 18.2401 5.97466 17.7852 6.07214 17.3467L7.54214 10.7307C7.89649 9.13694 8.77345 7.70734 10.0336 6.66919C11.2937 5.63103 12.8648 5.04391 14.4969 5.00115C16.1291 4.95839 17.7287 5.46245 19.0414 6.43321C20.3542 7.40396 21.3048 8.78568 21.7421 10.3587L23.6421 17.1947C23.7677 17.6401 23.7877 18.1086 23.7005 18.5631C23.6134 19.0175 23.4215 19.4454 23.1401 19.8127Z" fill="white"/>
</g>
</svg>
