<svg width="30" height="30" viewBox="0 0 30 30" fill="none" xmlns="http://www.w3.org/2000/svg">
<path d="M10 21.25H20" stroke="white" stroke-width="2" stroke-linecap="round" stroke-linejoin="round"/>
<path d="M10 16.25H15" stroke="white" stroke-width="2" stroke-linecap="round" stroke-linejoin="round"/>
<path d="M16.25 3.125V3.75C16.25 7.28554 16.25 9.0533 17.3484 10.1516C18.4468 11.25 20.2145 11.25 23.75 11.25H24.375M25 13.3211V17.5C25 22.214 25 24.5711 23.5355 26.0355C22.0711 27.5 19.714 27.5 15 27.5C10.286 27.5 7.92894 27.5 6.46446 26.0355C5 24.5711 5 22.214 5 17.5V11.8198C5 7.76353 5 5.73539 6.10759 4.36166C6.33135 4.08414 6.58414 3.83135 6.86166 3.60759C8.23539 2.5 10.2635 2.5 14.3198 2.5C15.2018 2.5 15.6426 2.5 16.0465 2.64251C16.1305 2.67215 16.2128 2.70625 16.2931 2.74469C16.6795 2.92944 16.9912 3.24125 17.6149 3.86485L23.5355 9.78554C24.2581 10.5081 24.6194 10.8694 24.8097 11.3288C25 11.7882 25 12.2992 25 13.3211Z" stroke="white" stroke-width="2" stroke-linecap="round" stroke-linejoin="round"/>
</svg>
