<svg width="21" height="21" viewBox="0 0 21 21" fill="none" xmlns="http://www.w3.org/2000/svg">
<path d="M9.625 7.875V15.75C9.625 16.2313 9.23125 16.625 8.75 16.625C8.26875 16.625 7.875 16.2313 7.875 15.75V7.875C7.875 7.39375 8.26875 7 8.75 7C9.23125 7 9.625 7.39375 9.625 7.875ZM21 4.375V16.625C21 19.04 19.04 21 16.625 21H4.375C1.96 21 0 19.04 0 16.625V4.375C0 1.96 1.96 0 4.375 0H16.625C19.04 0 21 1.96 21 4.375ZM19.25 4.375C19.25 2.93125 18.0688 1.75 16.625 1.75H4.375C2.93125 1.75 1.75 2.93125 1.75 4.375V16.625C1.75 18.0688 2.93125 19.25 4.375 19.25H16.625C18.0688 19.25 19.25 18.0688 19.25 16.625V4.375ZM5.25 9.625C4.76875 9.625 4.375 10.0188 4.375 10.5V15.75C4.375 16.2313 4.76875 16.625 5.25 16.625C5.73125 16.625 6.125 16.2313 6.125 15.75V10.5C6.125 10.0188 5.73125 9.625 5.25 9.625ZM12.25 4.375C11.7688 4.375 11.375 4.76875 11.375 5.25V15.75C11.375 16.2313 11.7688 16.625 12.25 16.625C12.7312 16.625 13.125 16.2313 13.125 15.75V5.25C13.125 4.76875 12.7312 4.375 12.25 4.375ZM15.75 12.25C15.2688 12.25 14.875 12.6438 14.875 13.125V15.75C14.875 16.2313 15.2688 16.625 15.75 16.625C16.2313 16.625 16.625 16.2313 16.625 15.75V13.125C16.625 12.6438 16.2313 12.25 15.75 12.25Z" fill="white"/>
</svg>
