<svg width="30" height="30" viewBox="0 0 30 30" fill="none" xmlns="http://www.w3.org/2000/svg">
<mask id="mask0_2001_8" style="mask-type:luminance" maskUnits="userSpaceOnUse" x="3" y="3" width="24" height="24">
<path d="M27 3H3V27H27V3Z" fill="white"/>
</mask>
<g mask="url(#mask0_2001_8)">
<path d="M23 9.101V8C23 5.243 20.757 3 18 3H12C9.243 3 7 5.243 7 8V9.101C4.721 9.566 3 11.586 3 14V22C3 24.757 5.243 27 8 27H22C24.757 27 27 24.757 27 22V14C27 11.586 25.279 9.565 23 9.101ZM5 22V14C5 12.696 5.836 11.585 7 11.172V24.828C5.836 24.415 5 23.304 5 22ZM9 8C9 6.346 10.346 5 12 5H18C19.654 5 21 6.346 21 8V25H9V8ZM25 22C25 23.304 24.164 24.415 23 24.828V11.172C24.164 11.585 25 12.696 25 14V22ZM14 17C14 17.552 13.553 18 13 18H12C11.447 18 11 17.552 11 17C11 16.448 11.447 16 12 16H13C13.553 16 14 16.448 14 17ZM19 17C19 17.552 18.553 18 18 18H17C16.447 18 16 17.552 16 17C16 16.448 16.447 16 17 16H18C18.553 16 19 16.448 19 17ZM14 21C14 21.552 13.553 22 13 22H12C11.447 22 11 21.552 11 21C11 20.448 11.447 20 12 20H13C13.553 20 14 20.448 14 21ZM19 21C19 21.552 18.553 22 18 22H17C16.447 22 16 21.552 16 21C16 20.448 16.447 20 17 20H18C18.553 20 19 20.448 19 21ZM16 12C16 12.552 15.553 13 15 13C14.447 13 14 12.552 14 12V11H13C12.447 11 12 10.552 12 10C12 9.448 12.447 9 13 9H14V8C14 7.448 14.447 7 15 7C15.553 7 16 7.448 16 8V9H17C17.553 9 18 9.448 18 10C18 10.552 17.553 11 17 11H16V12Z" fill="white"/>
</g>
</svg>
