<svg width="26" height="26" viewBox="0 0 26 26" fill="none" xmlns="http://www.w3.org/2000/svg">
<g clip-path="url(#clip0_30670_19591)">
<path d="M9.75 13C13.3348 13 16.25 10.0848 16.25 6.5C16.25 2.91525 13.3348 0 9.75 0C6.16525 0 3.25 2.91525 3.25 6.5C3.25 10.0848 6.16525 13 9.75 13ZM9.75 2.16667C12.1398 2.16667 14.0833 4.11017 14.0833 6.5C14.0833 8.88983 12.1398 10.8333 9.75 10.8333C7.36017 10.8333 5.41667 8.88983 5.41667 6.5C5.41667 4.11017 7.36017 2.16667 9.75 2.16667ZM11.6458 17.5717C11.0305 17.4135 10.3924 17.3333 9.75 17.3333C5.56833 17.3333 2.16667 20.735 2.16667 24.9167C2.16667 25.5147 1.68133 26 1.08333 26C0.485333 26 0 25.5147 0 24.9167C0 19.5412 4.3745 15.1667 9.75 15.1667C10.5755 15.1667 11.3956 15.2696 12.1875 15.4743C12.7671 15.6238 13.1148 16.2143 12.9664 16.7938C12.8169 17.3734 12.2298 17.7212 11.6469 17.5728L11.6458 17.5717ZM26 20.5833C26 21.1813 25.5147 21.6667 24.9167 21.6667H23.3296L21.4847 24.4346C21.2713 24.7563 20.8986 24.9394 20.5162 24.9145C20.1305 24.8907 19.7871 24.6632 19.6138 24.3176L17.199 19.487L16.068 21.1835C15.8665 21.4847 15.5285 21.6656 15.1667 21.6656H13C12.402 21.6656 11.9167 21.1803 11.9167 20.5823C11.9167 19.9843 12.402 19.4989 13 19.4989H14.5871L16.432 16.731C16.6454 16.4103 17.0181 16.2186 17.4005 16.2511C17.7862 16.2749 18.1296 16.5024 18.3029 16.848L20.7177 21.6786L21.8487 19.9821C22.0502 19.6809 22.3882 19.5 22.75 19.5H24.9167C25.5147 19.5 26 19.9853 26 20.5833Z" fill="white"/>
</g>
<defs>
<clipPath id="clip0_30670_19591">
<rect width="26" height="26" fill="white"/>
</clipPath>
</defs>
</svg>
