<svg width="30" height="30" viewBox="0 0 30 30" fill="none" xmlns="http://www.w3.org/2000/svg">
<mask id="mask0_2001_14" style="mask-type:luminance" maskUnits="userSpaceOnUse" x="3" y="3" width="24" height="24">
<path d="M27 3H3V27H27V3Z" fill="white"/>
</mask>
<g mask="url(#mask0_2001_14)">
<path d="M14.904 18.9996C15.732 18.9996 16.404 19.6716 16.404 20.4996C16.404 21.3276 15.732 21.9996 14.904 21.9996C14.076 21.9996 13.404 21.3276 13.404 20.4996C13.404 19.6716 14.076 18.9996 14.904 18.9996ZM15.904 16.9996C15.904 16.4386 16.312 15.7746 16.832 15.4876C18.332 14.6616 19.139 12.9646 18.841 11.2646C18.558 9.65161 17.234 8.3266 15.62 8.0436C14.438 7.8396 13.24 8.1556 12.331 8.9176C11.424 9.68061 10.903 10.7966 10.903 11.9806C10.903 12.5336 11.351 12.9806 11.903 12.9806C12.455 12.9806 12.903 12.5336 12.903 11.9806C12.903 11.3886 13.163 10.8306 13.617 10.4486C14.078 10.0626 14.669 9.9066 15.274 10.0136C16.061 10.1516 16.732 10.8236 16.87 11.6096C17.023 12.4806 16.629 13.3146 15.866 13.7346C14.71 14.3716 13.903 15.7136 13.903 16.9986C13.903 17.5516 14.351 17.9986 14.903 17.9986C15.455 17.9986 15.903 17.5516 15.903 16.9986L15.904 16.9996ZM27 21.9996V15.3396C27 8.8606 22.096 3.4536 15.836 3.0276C12.361 2.7976 8.961 4.0656 6.509 6.5206C4.057 8.9766 2.789 12.3776 3.03 15.8536C3.47 22.2076 9.082 26.9996 16.084 26.9996H22.001C24.758 26.9996 27 24.7566 27 21.9996ZM15.701 5.0236C20.916 5.3776 25 9.90861 25 15.3386V21.9986C25 23.6526 23.654 24.9986 22 24.9986H16.083C10.048 24.9986 5.397 21.0946 5.024 15.7146C4.823 12.8156 5.879 9.97961 7.923 7.9336C9.805 6.0486 12.358 4.9996 15.015 4.9996C15.243 4.9996 15.472 5.0076 15.7 5.0226L15.701 5.0236Z" fill="white"/>
</g>
</svg>
