<svg width="23" height="23" viewBox="0 0 23 23" fill="none" xmlns="http://www.w3.org/2000/svg">
<mask id="mask0_30631_4059" style="mask-type:luminance" maskUnits="userSpaceOnUse" x="0" y="0" width="23" height="23">
<path d="M0 0H22.0732V22.0732H0V0Z" fill="white"/>
</mask>
<g mask="url(#mask0_30631_4059)">
<path d="M19.5297 6.20382C20.5989 7.01932 21.2111 8.29638 21.2111 9.64108V16.8955C21.2111 19.2766 19.2809 21.2067 16.8999 21.2067H5.17349C2.79246 21.2067 0.862305 19.2766 0.862305 16.8955V9.64108C0.862305 8.29638 1.48975 7.02863 2.55897 6.21317L8.42218 1.74123C9.96627 0.563544 12.1071 0.563544 13.6512 1.74123L16.8999 4.21684V1.3753" stroke="white" stroke-width="1.875" stroke-miterlimit="10" stroke-linecap="round" stroke-linejoin="round"/>
<path d="M9.31217 9.95562C8.71693 9.95562 8.23438 10.4382 8.23438 11.0334C8.23438 11.6287 8.71693 12.1112 9.31217 12.1112C9.90741 12.1112 10.39 11.6287 10.39 11.0334C10.39 10.4382 9.90741 9.95562 9.31217 9.95562Z" fill="white"/>
<path d="M12.7611 9.95562C12.1659 9.95562 11.6833 10.4382 11.6833 11.0334C11.6833 11.6287 12.1659 12.1112 12.7611 12.1112C13.3564 12.1112 13.8389 11.6287 13.8389 11.0334C13.8389 10.4382 13.3564 9.95562 12.7611 9.95562Z" fill="white"/>
<path d="M9.31217 13.4043C8.71693 13.4043 8.23438 13.8868 8.23438 14.4821C8.23438 15.0773 8.71693 15.5599 9.31217 15.5599C9.90741 15.5599 10.39 15.0773 10.39 14.4821C10.39 13.8868 9.90741 13.4043 9.31217 13.4043Z" fill="white"/>
<path d="M12.7611 13.4043C12.1659 13.4043 11.6833 13.8868 11.6833 14.4821C11.6833 15.0773 12.1659 15.5599 12.7611 15.5599C13.3564 15.5599 13.8389 15.0773 13.8389 14.4821C13.8389 13.8868 13.3564 13.4043 12.7611 13.4043Z" fill="white"/>
</g>
</svg>
