<svg width="30" height="30" viewBox="0 0 30 30" fill="none" xmlns="http://www.w3.org/2000/svg">
<mask id="mask0_2001_23" style="mask-type:luminance" maskUnits="userSpaceOnUse" x="3" y="3" width="24" height="24">
<path d="M3 3H27V27H3V3Z" fill="white"/>
</mask>
<g mask="url(#mask0_2001_23)">
<path d="M3 7.5V22.5C3 24.981 5.019 27 7.5 27H11C11.553 27 12 26.552 12 26C12 25.448 11.553 25 11 25H7.5C6.121 25 5 23.878 5 22.5V7.5C5 6.122 6.121 5 7.5 5H11C11.553 5 12 4.552 12 4C12 3.448 11.553 3 11 3H7.5C5.019 3 3 5.019 3 7.5ZM12 19.957L14 19.952V22.006C14.004 23.236 14.711 24.289 15.846 24.756C16.224 24.912 16.615 24.988 16.999 24.988C17.769 24.988 18.514 24.684 19.092 24.105L25.837 17.824C27.41 16.25 27.41 13.731 25.863 12.183C25.856 12.176 19.096 5.815 19.096 5.815C18.249 4.968 17.006 4.719 15.873 5.186C14.739 5.652 14.03 6.704 14.024 7.93V10.003L11.987 10.026C9.807 10.026 8.025 11.809 8.025 14V15.982C8.025 18.173 9.807 19.956 11.999 19.956L12 19.957ZM11.997 17.957C10.912 17.957 10.026 17.071 10.026 15.983V14.001C10.026 12.913 10.912 12.027 12 12.027L15.038 11.993C15.586 11.987 16.026 11.541 16.026 10.993V7.936C16.028 7.333 16.492 7.096 16.634 7.037C16.775 6.979 17.271 6.821 17.703 7.251L24.459 13.606C25.217 14.375 25.213 15.619 24.448 16.384L17.702 22.665C17.247 23.122 16.748 22.964 16.607 22.905C16.464 22.846 16.002 22.609 16 22.001V18.948C16 18.682 15.895 18.427 15.706 18.24C15.518 18.053 15.265 17.948 15 17.948H14.997L11.997 17.955V17.957Z" fill="white"/>
</g>
</svg>
