<svg width="46" height="29" viewBox="0 0 46 29" fill="none" xmlns="http://www.w3.org/2000/svg">
<rect width="46" height="29" rx="14.5" fill="#574191"/>
<path d="M19.6001 9.1001C19.1227 9.1001 18.6649 9.28974 18.3273 9.62731C17.9897 9.96487 17.8001 10.4227 17.8001 10.9001V18.1001C17.8001 18.5775 17.9897 19.0353 18.3273 19.3729C18.6649 19.7105 19.1227 19.9001 19.6001 19.9001C20.0775 19.9001 20.5353 19.7105 20.8729 19.3729C21.2105 19.0353 21.4001 18.5775 21.4001 18.1001C21.4001 17.6227 21.2105 17.1649 20.8729 16.8273C20.5353 16.4897 20.0775 16.3001 19.6001 16.3001H12.4001C11.9227 16.3001 11.4649 16.4897 11.1273 16.8273C10.7897 17.1649 10.6001 17.6227 10.6001 18.1001C10.6001 18.5775 10.7897 19.0353 11.1273 19.3729C11.4649 19.7105 11.9227 19.9001 12.4001 19.9001C12.8775 19.9001 13.3353 19.7105 13.6729 19.3729C14.0105 19.0353 14.2001 18.5775 14.2001 18.1001V10.9001C14.2001 10.4227 14.0105 9.96487 13.6729 9.62731C13.3353 9.28974 12.8775 9.1001 12.4001 9.1001C11.9227 9.1001 11.4649 9.28974 11.1273 9.62731C10.7897 9.96487 10.6001 10.4227 10.6001 10.9001C10.6001 11.3775 10.7897 11.8353 11.1273 12.1729C11.4649 12.5105 11.9227 12.7001 12.4001 12.7001H19.6001C20.0775 12.7001 20.5353 12.5105 20.8729 12.1729C21.2105 11.8353 21.4001 11.3775 21.4001 10.9001C21.4001 10.4227 21.2105 9.96487 20.8729 9.62731C20.5353 9.28974 20.0775 9.1001 19.6001 9.1001Z" stroke="white" stroke-width="1.5" stroke-linecap="round" stroke-linejoin="round"/>
<path d="M29.0043 20V9.81818H30.8487V14.4964H30.973L34.9453 9.81818H37.1974L33.2599 14.3871L37.2322 20H35.0149L31.9773 15.6349L30.8487 16.9673V20H29.0043Z" fill="white"/>
</svg>
