<svg width="30" height="30" viewBox="0 0 30 30" fill="none" xmlns="http://www.w3.org/2000/svg">
<path d="M18.5537 12.2889C18.2351 11.9703 17.6069 11.7941 16.7334 11.9734C15.9683 12.1301 15.2467 12.511 14.7588 12.9988C14.1039 13.6537 13.9952 14.2775 14.002 14.6629C14.0088 15.0632 14.1554 15.4747 14.4316 15.8514L14.709 16.2293L14.3486 16.5301C14.0513 16.7789 13.6758 16.9597 13.2773 17.0272C12.6283 17.1372 12.134 17.5979 11.9785 18.2244L11.9521 18.3524C11.8749 18.8084 11.6605 19.2377 11.3369 19.5613L11.333 19.5652C11.2434 19.6528 11.1156 19.7563 10.9834 19.8445C10.9022 19.8988 10.7883 19.9665 10.6621 20.0164L10.6367 20.0418L10.4863 20.0711C10.3547 20.0968 10.2689 20.2244 10.2939 20.3553L10.2949 20.3592C10.3184 20.4845 10.4498 20.5733 10.5752 20.5486L10.5771 20.5477C11.1006 20.4464 11.5775 20.007 11.6777 19.9061L11.6787 19.9041L11.8184 19.7537C12.1303 19.3871 12.346 18.9243 12.4287 18.4334C12.5001 18.0101 12.7879 17.68 13.1816 17.5496L13.3574 17.5067L13.5654 17.4627C13.9799 17.3595 14.3662 17.1604 14.6826 16.8895V16.3279L15.3916 16.6541C15.661 16.7779 15.9378 16.8406 16.2119 16.8406C16.5973 16.8406 17.205 16.7216 17.8428 16.0838V16.0828C18.3503 15.5754 18.7406 14.7998 18.8828 14.0369C19.0279 13.258 18.8947 12.6301 18.5537 12.2889Z" fill="white" stroke="white"/>
<path d="M22.61 7.50343H6.62118C5.91473 7.50343 5.34204 7.09335 5.34204 6.58748V4.75567C5.34204 4.24981 5.91473 3.83972 6.62118 3.83972H22.61C23.3165 3.83972 23.8892 4.24981 23.8892 4.75567V6.58752C23.8892 7.09339 23.3165 7.50343 22.61 7.50343Z" stroke="white" stroke-width="2" stroke-miterlimit="10" stroke-linecap="round" stroke-linejoin="round"/>
<path d="M14.5359 27.2689C10.4739 27.2689 7.26074 23.9218 7.26074 21.0131V7.50305H21.9705V21.0131C21.9705 23.9218 18.5979 27.2689 14.5359 27.2689Z" stroke="white" stroke-width="2" stroke-miterlimit="10" stroke-linecap="round" stroke-linejoin="round"/>
</svg>
