<svg width="30" height="30" viewBox="0 0 30 30" fill="none" xmlns="http://www.w3.org/2000/svg">
<path d="M15 12.4883C14.5033 12.4883 14.0178 12.6356 13.6048 12.9115C13.1918 13.1875 12.8699 13.5797 12.6798 14.0386C12.4897 14.4975 12.44 15.0024 12.5369 15.4896C12.6338 15.9767 12.873 16.4242 13.2242 16.7755C13.5754 17.1267 14.0229 17.3659 14.5101 17.4628C14.9972 17.5597 15.5022 17.5099 15.9611 17.3198C16.42 17.1298 16.8122 16.8079 17.0881 16.3949C17.3641 15.9819 17.5114 15.4964 17.5114 14.9996C17.5114 14.3336 17.2468 13.6948 16.7758 13.2238C16.3048 12.7529 15.6661 12.4883 15 12.4883Z" fill="white"/>
<path d="M25.6818 17.1836L25.1715 16.8894C25.4013 15.6395 25.4013 14.3581 25.1715 13.1081L25.6818 12.8139C26.0743 12.5875 26.4182 12.286 26.6942 11.9267C26.9701 11.5674 27.1725 11.1572 27.2899 10.7196C27.4073 10.2821 27.4374 9.82564 27.3784 9.37645C27.3194 8.92726 27.1725 8.49409 26.9461 8.10167C26.7197 7.70924 26.4182 7.36526 26.0589 7.08934C25.6995 6.81343 25.2894 6.611 24.8518 6.4936C24.4142 6.3762 23.9578 6.34614 23.5086 6.40513C23.0594 6.46412 22.6263 6.61101 22.2339 6.83741L21.7224 7.13278C20.7564 6.30747 19.6463 5.66768 18.448 5.24559V4.65599C18.448 3.74153 18.0847 2.86452 17.4381 2.2179C16.7915 1.57128 15.9145 1.20801 15 1.20801C14.0855 1.20801 13.2085 1.57128 12.5619 2.2179C11.9153 2.86452 11.552 3.74153 11.552 4.65599V5.24559C10.3537 5.66919 9.24399 6.31056 8.27873 7.13738L7.76499 6.83971C6.97245 6.38248 6.03075 6.2588 5.14703 6.4959C4.26332 6.73299 3.50998 7.31143 3.05275 8.10396C2.59552 8.8965 2.47185 9.8382 2.70894 10.7219C2.94604 11.6056 3.52448 12.359 4.31701 12.8162L4.82731 13.1104C4.59757 14.3604 4.59757 15.6418 4.82731 16.8917L4.31701 17.1859C3.52448 17.6432 2.94604 18.3965 2.70894 19.2802C2.47185 20.1639 2.59552 21.1056 3.05275 21.8982C3.50998 22.6907 4.26332 23.2691 5.14703 23.5062C6.03075 23.7433 6.97245 23.6197 7.76499 23.1624L8.27644 22.8671C9.24275 23.6925 10.3532 24.3323 11.552 24.7543V25.3439C11.552 26.2583 11.9153 27.1353 12.5619 27.7819C13.2085 28.4286 14.0855 28.7918 15 28.7918C15.9145 28.7918 16.7915 28.4286 17.4381 27.7819C18.0847 27.1353 18.448 26.2583 18.448 25.3439V24.7543C19.6463 24.3307 20.756 23.6893 21.7213 22.8625L22.235 23.159C23.0275 23.6162 23.9692 23.7399 24.853 23.5028C25.7367 23.2657 26.49 22.6873 26.9472 21.8947C27.4045 21.1022 27.5281 20.1605 27.291 19.2768C27.054 18.3931 26.4755 17.6397 25.683 17.1825L25.6818 17.1836ZM22.7533 12.8438C23.1426 14.2541 23.1426 15.7435 22.7533 17.1538C22.6854 17.3992 22.7009 17.6603 22.7974 17.896C22.8939 18.1317 23.066 18.3287 23.2866 18.4559L24.5325 19.1754C24.7966 19.3278 24.9894 19.5789 25.0684 19.8735C25.1474 20.168 25.1061 20.4819 24.9537 20.746C24.8013 21.0101 24.5502 21.2029 24.2557 21.2819C23.9612 21.3609 23.6473 21.3196 23.3832 21.1672L22.135 20.4454C21.9142 20.3176 21.6572 20.2668 21.4043 20.3011C21.1515 20.3354 20.9173 20.4529 20.7386 20.6351C19.7156 21.6794 18.4268 22.4245 17.0113 22.7901C16.7642 22.8536 16.5453 22.9975 16.3891 23.1991C16.2328 23.4008 16.148 23.6487 16.1482 23.9038V25.3439C16.1482 25.6487 16.0271 25.941 15.8115 26.1566C15.596 26.3721 15.3037 26.4932 14.9988 26.4932C14.694 26.4932 14.4017 26.3721 14.1861 26.1566C13.9706 25.941 13.8495 25.6487 13.8495 25.3439V23.9049C13.8496 23.6498 13.7649 23.4019 13.6086 23.2003C13.4524 22.9986 13.2334 22.8547 12.9864 22.7912C11.5708 22.4242 10.2824 21.6775 9.26026 20.6316C9.08157 20.4495 8.84735 20.332 8.59452 20.2977C8.34169 20.2633 8.08462 20.3141 7.86383 20.442L6.61796 21.1626C6.4872 21.2393 6.34257 21.2893 6.19239 21.3098C6.04222 21.3304 5.88946 21.321 5.74292 21.2823C5.59639 21.2435 5.45896 21.1762 5.33855 21.0841C5.21815 20.992 5.11714 20.877 5.04135 20.7458C4.96557 20.6145 4.91649 20.4696 4.89695 20.3192C4.87742 20.1689 4.8878 20.0163 4.92752 19.87C4.96723 19.7237 5.03549 19.5867 5.12835 19.4669C5.22122 19.3471 5.33687 19.2469 5.46863 19.172L6.7145 18.4525C6.93511 18.3252 7.1072 18.1283 7.20372 17.8926C7.30025 17.6569 7.31575 17.3958 7.24779 17.1503C6.85858 15.74 6.85858 14.2506 7.24779 12.8403C7.31453 12.5954 7.29829 12.3352 7.2016 12.1005C7.10492 11.8658 6.93324 11.6696 6.71335 11.5427L5.46748 10.8233C5.20336 10.6709 5.01059 10.4198 4.9316 10.1252C4.8526 9.8307 4.89385 9.51684 5.04626 9.25272C5.19867 8.98859 5.44976 8.79583 5.74429 8.71683C6.03883 8.63783 6.35268 8.67908 6.61681 8.83149L7.86498 9.55327C8.08516 9.68143 8.3417 9.7328 8.59426 9.69931C8.84682 9.66581 9.08109 9.54935 9.26026 9.36822C10.2833 8.32388 11.572 7.57875 12.9875 7.21324C13.2354 7.14952 13.4548 7.00492 13.6112 6.80235C13.7675 6.59978 13.8518 6.35083 13.8507 6.09494V4.65599C13.8507 4.35117 13.9718 4.05883 14.1873 3.84329C14.4028 3.62775 14.6952 3.50666 15 3.50666C15.3048 3.50666 15.5971 3.62775 15.8127 3.84329C16.0282 4.05883 16.1493 4.35117 16.1493 4.65599V6.09494C16.1492 6.35004 16.2339 6.59794 16.3902 6.79957C16.5465 7.00121 16.7654 7.14512 17.0125 7.20864C18.4284 7.57545 19.7173 8.3222 20.7397 9.36822C20.9184 9.55035 21.1526 9.66784 21.4055 9.70218C21.6583 9.73651 21.9154 9.68574 22.1362 9.55786L23.382 8.83723C23.5128 8.76058 23.6574 8.71054 23.8076 8.69001C23.9578 8.66948 24.1105 8.67885 24.2571 8.71759C24.4036 8.75633 24.541 8.82368 24.6614 8.91575C24.7818 9.00782 24.8828 9.1228 24.9586 9.25406C25.0344 9.38533 25.0835 9.53029 25.103 9.6806C25.1226 9.83091 25.1122 9.9836 25.0725 10.1299C25.0328 10.2762 24.9645 10.4131 24.8716 10.5329C24.7788 10.6527 24.6631 10.753 24.5314 10.8279L23.2855 11.5473C23.066 11.6746 22.8948 11.8709 22.7986 12.1056C22.7023 12.3403 22.6864 12.6002 22.7533 12.8449V12.8438Z" fill="white"/>
</svg>
