<svg width="144" height="36" viewBox="0 0 144 36" fill="none" xmlns="http://www.w3.org/2000/svg">
<mask id="mask0_16326_32226" style="mask-type:luminance" maskUnits="userSpaceOnUse" x="14" y="0" width="10" height="14">
<path d="M14.2256 0H23.5771V13.2341H14.2256V0Z" fill="white"/>
</mask>
<g mask="url(#mask0_16326_32226)">
<path d="M14.418 12.4356V0.015625H23.0807C23.0807 0.015625 23.2007 5.82902 20.9828 8.17213C18.7702 10.51 14.418 12.4356 14.418 12.4356Z" fill="url(#paint0_linear_16326_32226)"/>
</g>
<mask id="mask1_16326_32226" style="mask-type:luminance" maskUnits="userSpaceOnUse" x="0" y="0" width="24" height="24">
<path d="M23.0814 0.488281C23.0918 2.02252 22.9144 7.09489 20.42 12.0473C19.632 13.6076 18.6196 15.1523 17.3097 16.5769C13.9125 20.2612 8.52702 23.0948 0 23.0948V14.4425C6.28828 14.4425 10.8701 13.4771 14.2047 12.0473C15.3893 11.5411 16.4226 10.9722 17.315 10.3669C22.5595 6.81309 23.0605 1.9912 23.0814 0.488281Z" fill="white"/>
</mask>
<g mask="url(#mask1_16326_32226)">
<path d="M0 0V23.0948H23.0918V0H0Z" fill="#FF72A6"/>
</g>
<mask id="mask2_16326_32226" style="mask-type:luminance" maskUnits="userSpaceOnUse" x="14" y="21" width="10" height="15">
<path d="M14.2256 21.2539H23.5771V35.0724H14.2256V21.2539Z" fill="white"/>
</mask>
<g mask="url(#mask2_16326_32226)">
<path d="M23.0857 22.2148V34.6348H14.423C14.423 34.6348 14.303 28.8214 16.5208 26.4783C18.7335 24.1404 23.0857 22.2148 23.0857 22.2148Z" fill="url(#paint1_linear_16326_32226)"/>
</g>
<mask id="mask3_16326_32226" style="mask-type:luminance" maskUnits="userSpaceOnUse" x="14" y="10" width="24" height="25">
<path d="M14.2246 10.5625H37.0712V34.6094H14.2246V10.5625Z" fill="white"/>
</mask>
<g mask="url(#mask3_16326_32226)">
<mask id="mask4_16326_32226" style="mask-type:luminance" maskUnits="userSpaceOnUse" x="14" y="11" width="24" height="24">
<path d="M14.4242 34.1651C14.4137 32.6308 14.5912 27.5585 17.0856 22.6061C17.8684 21.0458 18.886 19.5011 20.1958 18.0765C23.5931 14.3922 28.9786 11.5586 37.5056 11.5586V20.2108C31.2173 20.2108 26.6354 21.1762 23.3008 22.6061C22.1162 23.1123 21.083 23.6811 20.1906 24.2865C14.946 27.8403 14.4451 32.6621 14.4242 34.1651Z" fill="white"/>
</mask>
<g mask="url(#mask4_16326_32226)">
<path d="M37.0728 34.1651V11.5586H14.4141V34.1651H37.0728Z" fill="#FF72A6"/>
</g>
</g>
<path d="M56.1845 25.6844C54.5146 25.6844 53.0221 25.3243 51.7175 24.5989C50.4233 23.8631 49.4057 22.8559 48.6699 21.5722C47.9288 20.278 47.5635 18.7907 47.5635 17.1052C47.5635 15.4353 47.9236 13.9636 48.649 12.6799C49.3691 11.3857 50.3815 10.3785 51.6757 9.6532C52.9803 8.9174 54.4624 8.54688 56.1219 8.54688C57.4578 8.54688 58.6894 8.78693 59.8166 9.2566C60.9437 9.71582 61.904 10.3785 62.6972 11.2396C63.4904 12.0902 64.054 13.0974 64.388 14.2663H60.3593C59.9679 13.5462 59.4043 12.9826 58.6685 12.5755C57.9431 12.1737 57.1134 11.9702 56.1845 11.9702C55.2347 11.9702 54.3945 12.1946 53.6587 12.6381C52.9177 13.0713 52.3437 13.6766 51.9262 14.4542C51.5087 15.2213 51.3 16.1032 51.3 17.1052C51.3 18.0967 51.4983 18.9786 51.9053 19.7562C52.3228 20.5233 52.8968 21.1286 53.6379 21.5722C54.3737 22.021 55.2452 22.2402 56.2471 22.2402C57.4578 22.2402 58.4597 21.9375 59.253 21.3217C60.0566 20.7111 60.5785 19.9023 60.8185 18.9003H55.4748V15.9988H64.7637C64.8576 17.4183 64.7219 18.7229 64.3462 19.9023C63.9809 21.0712 63.4173 22.094 62.6554 22.9708C61.8883 23.837 60.9646 24.505 59.8792 24.9747C58.7937 25.4443 57.5622 25.6844 56.1845 25.6844Z" fill="#333333"/>
<path d="M69.3164 25.342V8.85156H80.15V12.0244H73.032V15.4269H79.5029V18.5579H73.032V22.1691H80.4005V25.342H69.3164Z" fill="#333333"/>
<path d="M85.1641 25.342V8.85156H88.337L95.622 18.8919V8.85156H99.3375V25.342H96.1647L88.8797 15.239V25.342H85.1641Z" fill="#333333"/>
<path d="M104.873 25.342V8.85156H108.61V25.342H104.873Z" fill="#333333"/>
<path d="M114.152 25.342V8.85156H124.484V12.254H117.888V16.3662H123.879V19.6643H117.888V25.342H114.152Z" fill="#333333"/>
<path d="M133.382 25.342V19.5808L127.308 8.85156H131.566L133.612 12.6715L135.261 15.6565L136.889 12.6715L138.914 8.85156H143.172L137.139 19.5182V25.342H133.382Z" fill="#333333"/>
<defs>
<linearGradient id="paint0_linear_16326_32226" x1="18.7499" y1="0.015625" x2="18.7499" y2="12.4356" gradientUnits="userSpaceOnUse">
<stop stop-color="#FF72A6"/>
<stop offset="1" stop-color="#F51366"/>
</linearGradient>
<linearGradient id="paint1_linear_16326_32226" x1="18.7538" y1="22.2148" x2="18.7538" y2="34.6348" gradientUnits="userSpaceOnUse">
<stop stop-color="#F40A60"/>
<stop offset="1" stop-color="#FF72A6"/>
</linearGradient>
</defs>
</svg>
